<?xml version="1.0" encoding="utf-8"?>
<!-- Generator: Adobe Illustrator 22.1.0, SVG Export Plug-In . SVG Version: 6.00 Build 0)  -->
<svg version="1.1" id="Layer_1" xmlns="http://www.w3.org/2000/svg" xmlns:xlink="http://www.w3.org/1999/xlink" x="0px" y="0px"
	 viewBox="0 0 169 227" style="enable-background:new 0 0 169 227;" xml:space="preserve">
<style type="text/css">
	.st0{fill:#D32327;}
	.st1{font-family:'Omnes-Bold';}
	.st2{font-size:24px;}
</style>
<g id="_x33_">
	<path class="st0" d="M156.8,71.8l-2.1-7.8c1.5-1,2.5-2.5,3-4.2c0.5-1.9,0.3-4-0.7-5.7l-7.7-13.4c-2-3.4-6.2-4.7-9.7-3l-5.7-5.7
		c1.6-3.5,0.4-7.7-3-9.7l-13.4-7.7c-1.7-1-3.7-1.3-5.7-0.7c-1.7,0.5-3.2,1.5-4.2,3l-7.8-2.1c-0.3-3.8-3.5-6.9-7.5-6.9H76.8
		c-3.9,0-7.1,3-7.5,6.9l-7.8,2.1c-1-1.5-2.5-2.5-4.2-3c-1.9-0.5-4-0.3-5.7,0.7l-13.4,7.7c-3.4,2-4.7,6.2-3,9.7l-5.7,5.7
		c-3.5-1.6-7.7-0.4-9.7,3l-7.7,13.4c-1,1.7-1.3,3.8-0.7,5.7c0.5,1.7,1.5,3.2,3,4.2l-2.1,7.8c-3.8,0.3-6.9,3.5-6.9,7.5v15.4
		c0,3.9,3,7.1,6.9,7.5l2.1,7.8c-3.2,2.2-4.2,6.5-2.2,9.9l7.7,13.4c1,1.7,2.6,3,4.6,3.5c0.7,0.2,1.3,0.3,2,0.3c1.1,0,2.2-0.3,3.2-0.7
		l2.1,2.1l-22,60l34-5.3l22.5,26L84.5,169l18.4,50.2l22.5-26l34,5.3l-22-60l2.1-2.1c1,0.5,2.1,0.7,3.2,0.7c0.7,0,1.3-0.1,2-0.3
		c1.9-0.5,3.6-1.8,4.6-3.5l7.7-13.4c2-3.4,0.9-7.7-2.2-9.9l2.1-7.8c3.8-0.3,6.9-3.5,6.9-7.5V79.3C163.6,75.4,160.6,72.2,156.8,71.8z
		 M140.4,40.6c2.1-1.2,4.9-0.5,6.1,1.6l7.7,13.4c0.6,1,0.8,2.2,0.4,3.4c-0.3,1.2-1.1,2.1-2.1,2.7l-13.3,7.7
		c-2.5-7.9-6.8-15.1-12.2-21.1L140.4,40.6z M153.7,71.8h-12.4l10.7-6.2L153.7,71.8z M132.3,139.3l-6.2-10.7l10.7,6.2L132.3,139.3z
		 M92.2,163.2H76.8c-2.5,0-4.5-2-4.5-4.5v-15.4c3.9,0.9,8,1.3,12.2,1.3s8.3-0.5,12.2-1.3v15.4C96.7,161.1,94.7,163.2,92.2,163.2z
		 M59.3,155.2c-1.2,2.1-4,2.9-6.1,1.6l-13.4-7.7c-2.1-1.2-2.9-4-1.6-6.1l7.7-13.3c6,5.5,13.2,9.7,21.1,12.2L59.3,155.2z M69.3,143.8
		v12.4l-6.2-1.7L69.3,143.8z M32.2,134.8l10.7-6.2l-6.2,10.7L32.2,134.8z M99.7,143.8l6.2,10.7l-6.2,1.7V143.8z M102.1,141.9
		c7.9-2.5,15.1-6.8,21.1-12.2l7.7,13.3c1.2,2.1,0.5,4.9-1.6,6.1l-13.4,7.7c-2.1,1.2-4.9,0.5-6.1-1.6L102.1,141.9z M84.5,141.6
		c-30.1,0-54.6-24.5-54.6-54.6c0-30.1,24.5-54.6,54.6-54.6c30.1,0,54.6,24.5,54.6,54.6C139.1,117.1,114.6,141.6,84.5,141.6z
		 M136.8,39.3l-10.7,6.2l6.2-10.7L136.8,39.3z M109.7,18.9c0.6-1,1.6-1.8,2.7-2.1c1.2-0.3,2.4-0.2,3.4,0.4l13.4,7.7
		c2.1,1.2,2.9,4,1.6,6.1l-7.7,13.3c-6-5.5-13.2-9.7-21.1-12.2L109.7,18.9z M99.7,17.9l6.2,1.7l-6.2,10.7V17.9z M76.8,10.9h15.4
		c2.5,0,4.5,2,4.5,4.5v15.4c-3.9-0.9-8-1.3-12.2-1.3s-8.3,0.5-12.2,1.3V15.4C72.3,12.9,74.3,10.9,76.8,10.9z M69.3,17.9v12.4
		l-6.2-10.7L69.3,17.9z M39.7,24.9l13.4-7.7c0.7-0.4,1.5-0.6,2.2-0.6c0.4,0,0.8,0.1,1.2,0.2c1.2,0.3,2.1,1.1,2.7,2.1l7.7,13.3
		c-7.9,2.5-15.1,6.8-21.1,12.2l-7.7-13.3C36.9,28.9,37.6,26.2,39.7,24.9z M36.7,34.7l6.2,10.7l-10.7-6.2L36.7,34.7z M14.3,59
		c-0.3-1.2-0.2-2.4,0.4-3.4l7.7-13.4c0.8-1.4,2.3-2.2,3.9-2.2c0.8,0,1.5,0.2,2.2,0.6l13.3,7.7c-5.5,6-9.7,13.2-12.2,21.1l-13.3-7.7
		C15.3,61.2,14.6,60.2,14.3,59z M27.7,71.8H15.3l1.7-6.2L27.7,71.8z M12.9,99.2c-2.5,0-4.5-2-4.5-4.5V79.3c0-2.5,2-4.5,4.5-4.5h15.4
		c-0.9,3.9-1.3,8-1.3,12.2c0,4.2,0.5,8.3,1.3,12.2H12.9z M27.7,102.2L17,108.4l-1.7-6.2H27.7z M28.6,133.4c-1,0.6-2.2,0.8-3.4,0.4
		c-1.2-0.3-2.1-1.1-2.7-2.1l-7.7-13.4c-1.2-2.1-0.5-4.9,1.6-6.1l13.3-7.7c2.5,7.9,6.8,15.1,12.2,21.1L28.6,133.4z M33.9,140.7
		l1.3,1.3c-1.2,2.6-0.8,5.7,0.9,7.8L20,193.7l-5.9,0.9L33.9,140.7z M23.4,193.2l15.2-41.3l13,7.5c1.2,0.7,2.5,1,3.7,1
		c2.4,0,4.7-1.2,6.2-3.2l7.8,2.1c0.2,2.8,2,5.2,4.5,6.2l-14.9,40.7l-14.1-16.3L23.4,193.2z M65,213.3l-3.9-4.5l15.7-42.7
		c0,0,0,0,0,0h5.5L65,213.3z M86.7,166.2h5.5c0,0,0,0,0,0l15.7,42.7l-3.9,4.5L86.7,166.2z M124.3,189.9l-14.1,16.3l-14.9-40.7
		c2.5-1.1,4.3-3.4,4.5-6.2l7.8-2.1c1.4,2.1,3.8,3.2,6.2,3.2c1.3,0,2.6-0.3,3.7-1l13-7.5l15.2,41.3L124.3,189.9z M154.9,194.6
		l-5.9-0.9l-16.1-43.9c1.7-2.2,2.1-5.2,0.9-7.8l1.3-1.3L154.9,194.6z M154.3,118.4l-7.7,13.4c-0.6,1-1.6,1.8-2.7,2.1
		c-1.2,0.3-2.4,0.2-3.4-0.4l-13.3-7.7c5.5-6,9.7-13.2,12.2-21.1l13.3,7.7C154.8,113.5,155.5,116.3,154.3,118.4z M141.3,102.2h12.4
		l-1.7,6.2L141.3,102.2z M160.6,94.7c0,2.5-2,4.5-4.5,4.5h-15.4c0.9-3.9,1.3-8,1.3-12.2c0-4.2-0.5-8.3-1.3-12.2h15.4
		c2.5,0,4.5,2,4.5,4.5V94.7z"/>
	<text transform="matrix(1 0 0 1 54.705 70.0895)"><tspan x="0" y="0" class="st0 st1 st2">BEST</tspan><tspan x="17.7" y="21" class="st0 st1 st2">IN</tspan><tspan x="-7" y="42" class="st0 st1 st2">CLASS</tspan></text>
</g>
</svg>
