<?xml version="1.0" encoding="utf-8"?>
<!-- Generator: Adobe Illustrator 22.1.0, SVG Export Plug-In . SVG Version: 6.00 Build 0)  -->
<svg version="1.1" id="Capa_1" xmlns="http://www.w3.org/2000/svg" xmlns:xlink="http://www.w3.org/1999/xlink" x="0px" y="0px"
	 viewBox="0 0 133 134" style="enable-background:new 0 0 133 134;" xml:space="preserve">
<style type="text/css">
	.st0{fill:#488248;}
</style>
<path class="st0" d="M120.7,35.6c-5.6-9.6-13.2-17.2-22.8-22.8c-9.6-5.6-20.1-8.4-31.4-8.4c-11.4,0-21.8,2.8-31.4,8.4
	C25.5,18.4,17.9,26,12.3,35.6C6.7,45.2,3.9,55.6,3.9,67c0,11.4,2.8,21.8,8.4,31.4c5.6,9.6,13.2,17.2,22.8,22.8
	c9.6,5.6,20.1,8.4,31.4,8.4s21.8-2.8,31.4-8.4c9.6-5.6,17.2-13.2,22.8-22.8c5.6-9.6,8.4-20.1,8.4-31.4
	C129.1,55.6,126.3,45.2,120.7,35.6z M107.1,57.5l-44.2,44.2c-1,1-2.3,1.5-3.7,1.5c-1.4,0-2.6-0.5-3.7-1.5L25.9,72.2
	c-1-1-1.5-2.2-1.5-3.7c0-1.5,0.5-2.8,1.5-3.7l7.4-7.3c1-1,2.3-1.5,3.7-1.5s2.6,0.5,3.7,1.5l18.4,18.4l33.2-33.2c1-1,2.3-1.5,3.7-1.5
	c1.4,0,2.6,0.5,3.7,1.5l7.4,7.3c1,1,1.5,2.2,1.5,3.7C108.5,55.3,108.1,56.5,107.1,57.5z"/>
</svg>
